<?xml version="1.0" standalone="no"?>
<!DOCTYPE svg PUBLIC "-//W3C//DTD SVG 20010904//EN"
 "http://www.w3.org/TR/2001/REC-SVG-20010904/DTD/svg10.dtd">
<svg version="1.0" xmlns="http://www.w3.org/2000/svg"
 width="700.000000pt" height="700.000000pt" viewBox="0 0 700.000000 700.000000"
 preserveAspectRatio="xMidYMid meet">
<metadata>
Created by potrace 1.11, written by Peter Selinger 2001-2013
</metadata>
<g transform="translate(0.000000,700.000000) scale(0.100000,-0.100000)"
fill="#000000" stroke="none">
<path d="M3298 6996 c-1 -2 -41 -6 -88 -9 -319 -22 -671 -104 -997 -231 -92
-36 -332 -150 -428 -203 -274 -152 -559 -374 -796 -618 -405 -416 -695 -916
-853 -1468 -37 -130 -92 -387 -102 -478 -3 -29 -7 -65 -10 -79 -26 -151 -25
-655 1 -825 3 -16 7 -50 10 -75 5 -48 8 -65 30 -180 41 -212 91 -385 170 -590
102 -261 194 -439 350 -675 203 -306 428 -550 756 -820 34 -28 268 -195 273
-195 2 0 43 -24 90 -54 163 -102 519 -266 696 -321 57 -17 184 -54 210 -61
324 -82 547 -109 895 -108 180 0 253 4 405 19 42 4 237 36 305 50 290 59 620
177 889 318 105 55 132 80 141 136 7 44 -25 111 -65 134 -55 33 -93 25 -270
-61 -270 -131 -609 -242 -840 -277 -20 -3 -45 -7 -55 -9 -191 -36 -549 -50
-770 -32 -119 10 -307 36 -375 52 -14 3 -36 8 -50 10 -83 15 -395 107 -455
134 -11 5 -60 25 -110 45 -281 114 -624 327 -870 540 -78 68 -237 227 -310
311 -117 133 -296 375 -303 409 -2 8 -8 15 -13 15 -5 0 -9 4 -9 9 0 5 -18 38
-39 74 -86 141 -199 385 -259 562 -35 102 -79 248 -85 285 -3 14 -12 54 -20
90 -27 116 -52 287 -63 435 -13 170 -6 549 11 615 2 8 7 40 10 70 6 54 18 126
35 205 5 22 11 54 14 70 10 54 66 248 101 348 78 219 168 410 287 607 60 98
179 274 198 290 3 3 21 25 40 50 44 58 142 168 217 245 408 417 922 718 1470
860 72 19 142 36 155 39 150 30 145 29 273 46 202 25 460 32 655 16 116 -9
308 -35 380 -52 14 -3 36 -8 50 -10 274 -50 685 -212 975 -387 97 -58 272
-176 298 -200 6 -7 32 -28 57 -47 167 -127 388 -352 555 -565 34 -43 185 -263
185 -269 0 -2 18 -33 39 -68 52 -85 129 -241 184 -369 40 -95 111 -290 122
-335 2 -11 14 -53 25 -94 11 -41 22 -84 24 -95 2 -11 11 -55 20 -97 18 -89 42
-257 52 -373 13 -149 7 -527 -10 -621 -2 -11 -7 -46 -11 -79 -24 -202 -105
-519 -187 -725 -41 -102 -40 -100 -102 -230 -147 -306 -308 -539 -556 -809
-98 -107 -98 -107 -105 -155 -15 -90 78 -170 169 -145 34 9 148 117 231 219
21 25 41 47 45 50 4 3 49 62 102 131 316 420 534 905 637 1418 17 80 33 175
37 211 3 36 8 68 10 71 24 42 23 759 -1 832 -2 7 -6 35 -9 62 -6 49 -11 84
-21 135 -3 14 -8 39 -11 55 -79 444 -283 924 -562 1325 -59 84 -204 270 -250
320 -89 95 -217 222 -289 286 -143 127 -152 134 -268 219 -449 328 -984 551
-1510 631 -27 4 -52 8 -55 9 -3 1 -41 5 -85 10 -44 4 -89 10 -100 12 -26 4
-512 13 -517 9z"/>
<path d="M3478 6565 c-1 -1 -64 -6 -139 -9 -74 -4 -144 -8 -155 -10 -10 -2
-44 -7 -74 -10 -218 -25 -507 -100 -735 -189 -223 -88 -312 -143 -316 -195 -7
-73 18 -125 71 -154 48 -26 88 -19 212 37 122 56 314 126 430 156 283 72 444
93 728 93 214 0 304 -7 494 -40 236 -40 516 -133 740 -245 386 -194 687 -439
964 -785 130 -162 314 -478 378 -646 9 -24 22 -56 29 -73 25 -59 94 -283 96
-310 0 -3 6 -26 14 -52 12 -42 30 -136 49 -263 14 -91 21 -210 20 -370 0 -153
-3 -217 -18 -355 -3 -29 -14 -100 -22 -140 -2 -11 -7 -33 -10 -50 -19 -108
-92 -364 -129 -450 -7 -16 -23 -55 -35 -85 -54 -134 -167 -343 -251 -467 -387
-570 -946 -971 -1601 -1147 -106 -29 -112 -30 -268 -57 -238 -40 -564 -47
-800 -15 -14 2 -50 7 -80 10 -176 23 -525 126 -702 208 -412 191 -735 436
-1017 774 -154 185 -314 445 -405 659 -21 50 -42 99 -47 110 -57 132 -128 399
-154 580 -4 22 -8 51 -10 65 -20 116 -27 463 -12 617 10 113 52 352 77 443 11
41 23 84 25 96 3 11 22 70 44 130 132 371 321 681 594 977 92 100 107 126 101
179 -9 95 -106 150 -188 108 -32 -16 -124 -107 -207 -205 -19 -22 -42 -48 -51
-59 -89 -98 -293 -421 -368 -581 -75 -160 -79 -171 -120 -278 -126 -337 -192
-710 -190 -1077 1 -219 14 -364 45 -525 8 -38 17 -86 20 -105 11 -66 64 -255
104 -372 97 -280 239 -549 424 -803 29 -38 54 -72 57 -75 3 -3 37 -43 76 -90
74 -88 180 -198 274 -285 47 -44 85 -75 204 -172 44 -36 238 -165 321 -214
285 -168 687 -315 995 -363 19 -3 46 -8 60 -10 266 -46 567 -49 880 -10 103
13 147 20 245 39 70 14 265 69 369 105 430 148 831 403 1160 735 347 351 597
764 746 1230 33 104 84 311 94 380 3 22 7 49 10 60 2 11 7 47 10 80 4 33 9 67
11 75 14 53 21 395 10 540 -5 73 -23 234 -31 275 -2 11 -6 31 -8 45 -3 14 -7
41 -10 60 -16 114 -103 403 -172 575 -51 127 -168 353 -244 471 -421 654
-1052 1119 -1787 1320 -52 14 -107 28 -122 30 -14 3 -33 7 -41 9 -8 3 -33 7
-55 10 -22 4 -47 8 -55 10 -61 17 -234 35 -379 41 -80 3 -151 7 -158 9 -6 2
-13 2 -15 0z"/>
<path d="M1684 5960 c-58 -22 -102 -99 -90 -159 31 -149 252 -136 271 16 5 39
-29 105 -65 126 -34 21 -85 28 -116 17z"/>
<path d="M2455 4706 c-81 -37 -136 -96 -165 -177 -20 -52 -20 -84 -20 -1032 0
-975 0 -977 22 -1035 27 -72 98 -143 171 -171 51 -19 76 -20 1042 -20 l990 0
62 30 c67 32 119 86 150 155 17 36 18 106 20 1034 2 988 2 995 -19 1049 -27
72 -97 142 -169 169 -53 21 -64 21 -1044 21 l-990 0 -50 -23z m1994 -265 c5
-9 8 -436 7 -949 -1 -759 -3 -934 -14 -941 -7 -4 -434 -8 -948 -7 -777 1 -936
3 -943 15 -11 18 -11 1861 0 1882 8 15 91 16 949 16 858 0 941 -1 949 -16z"/>
<path d="M5536 985 c-56 -19 -85 -62 -88 -125 -3 -72 61 -134 136 -132 106 1
170 111 116 199 -37 62 -94 82 -164 58z"/>
</g>
</svg>
